<svg width="72" height="80" viewBox="0 0 72 80" fill="none" xmlns="http://www.w3.org/2000/svg">
<path d="M0 25.9896C0 21.5456 2.35791 17.441 6.18149 15.229L29.6602 1.64615C33.4307 -0.535173 38.0631 -0.54952 41.8469 1.6084L65.7528 15.2423C69.6133 17.444 72 21.5693 72 26.0406V53.9847C72 58.4424 69.6277 62.5575 65.7855 64.7643L42.0932 78.3729C38.3161 80.5424 33.6839 80.5424 29.9068 78.3729L6.21449 64.7643C2.37234 62.5575 0 58.4424 0 53.9847V25.9896Z" fill="#FFD359"/>
<path d="M46 61.4666V54H27V61.4666L36.5 70L46 61.4666Z" fill="#FFD7A3"/>
<path fill-rule="evenodd" clip-rule="evenodd" d="M35.9382 79.9998C33.8565 79.9893 31.7768 79.447 29.9068 78.3729L9.56537 66.689C10.1386 66.0278 10.9159 65.5403 11.8162 65.3284L25.0431 62.2162C25.4188 62.1277 25.7497 61.9412 26.0162 61.6903L36.3114 68.2418L47.0244 61.9926C47.1964 62.0893 47.3801 62.1691 47.5799 62.2161L60.8068 65.3283C61.5979 65.5144 62.2939 65.9135 62.8401 66.4562L42.0932 78.3729C40.2232 79.447 38.1436 79.9893 36.0619 79.9998H35.9382Z" fill="#8B63E7"/>
<path d="M27 54.0001V61.9613C38.9674 66.3644 46 55.3444 46 55.3444V54H27V54.0001Z" fill="#F0C290"/>
<path d="M22 30L22.9384 50.5407C23.026 52.4596 23.9718 54.2391 25.5163 55.3916L29.9692 58.7142C31.0877 59.5487 32.448 60 33.8461 60H38.1539C39.552 60 40.9123 59.5488 42.0308 58.7142L46.4837 55.3916C48.0282 54.239 48.974 52.4597 49.0616 50.5407L50 30C49.9999 30 22 30 22 30Z" fill="#FFE1B2"/>
<path fill-rule="evenodd" clip-rule="evenodd" d="M35.9138 79.9997C35.1572 79.9944 34.4011 79.9188 33.6552 79.773L34.3075 70.3795H38.316L38.9588 79.6364C38.0157 79.8718 37.0512 79.9929 36.0862 79.9997H35.9138Z" fill="#5B5D6E"/>
<path d="M39 68H34V69.882C34 70.4995 34.5005 71 35.118 71H37.8819C38.4994 71 38.9999 70.4995 38.9999 69.882V68H39Z" fill="#515262"/>
<path d="M26.5413 59.4485L36.3116 68.2417C36.3116 68.2417 33.5754 69.623 30.1988 72.407C29.5023 72.9812 28.4487 72.7486 28.0751 71.9268L23.4848 61.8283L24.937 59.6502C25.2983 59.1077 26.0568 59.0125 26.5413 59.4485Z" fill="white"/>
<path d="M46.0819 59.4485L36.3116 68.2417C36.3116 68.2417 39.0479 69.623 42.4244 72.407C43.121 72.9812 44.1746 72.7486 44.5482 71.9268L49.1384 61.8283L47.6863 59.6502C47.3248 59.1077 46.5663 59.0125 46.0819 59.4485Z" fill="white"/>
<path d="M43 22.6751L43.948 29.874C48.2756 30.804 48.8993 38.1016 48.9891 40.186C49.0054 40.5643 49.1178 40.9295 49.3087 41.2477L50.9599 44C50.9599 44 50.3948 39.4497 52.9824 36.3936C52.9825 36.3936 53.8711 18.3285 43 22.6751Z" fill="#4E1E30"/>
<path d="M51.9393 42.8954L50.8499 47.9756C50.7208 48.5778 50.2568 49 49.7243 49C49.1391 49 48.6456 48.4921 48.573 47.8152L48.0157 42.6192C47.8666 41.2283 48.7968 40 49.9991 40H50C51.3005 40.0001 52.2547 41.4246 51.9393 42.8954Z" fill="#FEE2BE"/>
<path d="M23.3292 20.8015L24.9099 21.896C17.7632 27.2443 19.0989 36.4176 19.0989 36.4176C21.2362 38.584 21.2362 44 21.2362 44L23.3736 41.8336C23.3736 41.8336 22.5487 35.5756 26.5796 33.1681C30.3199 30.934 33.5928 32.0849 36.9324 32.0849C45.8826 32.0849 48.3874 28.666 47.9532 24.5025C47.7285 22.3482 44.4788 17.8606 36.1978 18.0033C32.8558 18.0609 26.5798 19.0865 23.3292 20.8015Z" fill="#66273F"/>
<path d="M22.7421 31.1975C22.7421 31.1975 21.5955 26.6829 24.9679 22C17.751 27.3231 19.0999 36.4533 19.0999 36.4533C21.2582 38.6095 21.2582 44 21.2582 44L23.4165 41.8438C23.4165 41.8438 22.5835 35.6152 26.6539 33.219C30.431 30.9955 33.7359 32.141 37.1084 32.141C38.5782 32.141 39.8591 32.0426 41 31.8741C34.0397 32.1071 29.9367 26.8401 22.7421 31.1975Z" fill="#4E1E30"/>
<path d="M20.0758 42.8954L21.4376 47.9756C21.599 48.5778 22.179 49 22.8447 49C23.5762 49 24.1931 48.4921 24.2838 47.8152L24.9803 42.6192C25.1667 41.2283 24.0041 40 22.5011 40H22.5C20.8743 40.0001 19.6816 41.4246 20.0758 42.8954Z" fill="#FEE2BE"/>
</svg>
