<svg width="72" height="80" viewBox="0 0 72 80" fill="none" xmlns="http://www.w3.org/2000/svg">
<path d="M0 25.9896C0 21.5456 2.35791 17.441 6.18149 15.229L29.6602 1.64615C33.4307 -0.535173 38.0631 -0.54952 41.8469 1.6084L65.7528 15.2423C69.6133 17.444 72 21.5693 72 26.0406V53.9847C72 58.4424 69.6277 62.5575 65.7855 64.7643L42.0932 78.3729C38.3161 80.5424 33.6839 80.5424 29.9068 78.3729L6.21449 64.7643C2.37234 62.5575 0 58.4424 0 53.9847V25.9896Z" fill="#FF965D"/>
<path d="M23.4459 52.9683C20.3167 44.9152 13.7437 37.6272 22.0149 22.9468C25.4213 16.9006 30.6247 12.9131 36.0001 14.2632C41.3754 12.9133 46.5788 16.9008 49.9853 22.9468C58.2561 37.6272 51.6835 44.9152 48.5539 52.9683L36.0005 53L23.4463 52.9683H23.4459Z" fill="#1F0951"/>
<path fill-rule="evenodd" clip-rule="evenodd" d="M58.1322 69.1603L42.0932 78.3729C38.3161 80.5424 33.6839 80.5424 29.9068 78.3729L13.8827 69.1688C14.3342 67.129 14.6953 65.5227 14.8987 65.1943C17.5752 60.8728 20.8977 59.3361 23.8184 57.9851C27.4681 56.2969 30.4906 54.8989 30.8415 48.7202C30.8415 48.7202 33.6217 50.85 35.9032 50.8296C38.1846 50.8093 41.1724 48.5796 41.1724 48.5796C41.5248 54.7748 44.557 56.2074 48.2157 57.9359C51.1317 59.3136 54.4458 60.8793 57.1181 65.1943C57.3212 65.522 57.6816 67.1244 58.1322 69.1603Z" fill="#FFD7A3"/>
<path d="M42 50.4589C41.9157 50.006 41.8537 49.5218 41.8179 49C41.8179 49 38.4541 51.069 35.8856 51.0879C33.317 51.1068 30.1869 49.1305 30.1869 49.1305C30.1506 49.6618 30.0869 50.1533 30 50.6121C30.0658 50.6549 30.1311 50.6984 30.1981 50.7409L30.1973 50.7483C30.395 50.8903 33.4018 53.0213 35.8851 52.9998C38.3685 53.0212 41.3749 50.8899 41.573 50.7483L41.5725 50.7409C41.7183 50.6488 41.8598 50.5541 41.9995 50.4592L42 50.4589Z" fill="#F0C290"/>
<path d="M30.7605 48.9076C30.9428 49.0396 33.7152 51.0197 36.0049 50.9999C38.2947 51.0197 41.0667 49.0393 41.2493 48.9076C44.7103 46.9729 47.5501 41.2689 46.9091 35.0871C46.3841 30.0232 40.671 37.4482 36.6919 27C31.0601 38.3118 25.711 31.6205 25.1012 35.9075C24.429 40.6308 27.1946 46.574 30.7605 48.9079V48.9076V48.9076Z" fill="#FFE1B2"/>
<path fill-rule="evenodd" clip-rule="evenodd" d="M58.3694 69.0241L42.0932 78.3729C38.3161 80.5424 33.6839 80.5424 29.9068 78.3729L13.6118 69.0132C13.7301 68.3188 13.8438 67.6375 13.9519 66.9899C14.3707 64.4809 14.7053 62.4765 14.8984 62.1662C16.3944 59.761 19.4849 58.9075 22.3623 58.113C23.8802 57.6938 25.3387 57.291 26.4726 56.6855L26.4736 56.6867C32.5618 76.2175 40.1783 74.9536 45.2884 56.4139C46.3943 57.0078 47.9234 57.4199 49.5235 57.8512C52.6789 58.7017 56.1104 59.6266 57.1173 62.1662C57.2335 62.4592 57.497 63.9904 57.8446 66.0107C58.0039 66.9365 58.1808 67.965 58.3694 69.0241ZM26.473 56.6853C26.4729 56.6853 26.4728 56.6854 26.4726 56.6855L26.4724 56.6853H26.473ZM26.473 56.6853C26.4731 56.6852 26.4732 56.6852 26.4733 56.6851V56.6853H26.473Z" fill="#304CFD"/>
<path d="M28.663 54.8424C28.4497 60.6105 29.4304 68.7821 35.9024 70.8704C29.8092 71.1252 25.8554 62.3458 21.3512 60.0464L28.6628 54.8428V54.8424H28.663Z" fill="white"/>
<path d="M43.5047 54.8424C43.7284 60.6105 42.6989 68.7821 35.9025 70.8704C42.3009 71.1252 46.453 62.3458 51.1819 60.0464L43.5044 54.8428L43.5047 54.8424Z" fill="white"/>
</svg>
