<svg width="72" height="80" viewBox="0 0 72 80" fill="none" xmlns="http://www.w3.org/2000/svg">
<path d="M0 25.9896C0 21.5456 2.35791 17.441 6.18149 15.229L29.6602 1.64615C33.4307 -0.535173 38.0631 -0.54952 41.8469 1.6084L65.7528 15.2423C69.6133 17.444 72 21.5693 72 26.0406V53.9847C72 58.4424 69.6277 62.5575 65.7855 64.7643L42.0932 78.3729C38.3161 80.5424 33.6839 80.5424 29.9068 78.3729L6.21449 64.7643C2.37234 62.5575 0 58.4424 0 53.9847V25.9896Z" fill="#9868F8"/>
<path d="M55.1724 41.0904V38.5298C55.1724 37.8478 55.3338 37.1752 55.6437 36.5652C56.2612 35.046 56.4624 33.3938 56.2273 31.774L56.1149 31H33.9655L17 57.8986L33.023 63L43.3908 49.5507H53.2874H55.619C55.9452 49.5507 56.2668 49.476 56.5585 49.3325C56.8855 49.1716 57.1641 48.9295 57.3669 48.6302L57.5584 48.3475C57.8464 47.9224 58 47.4231 58 46.9123C58 46.2261 57.723 45.568 57.2299 45.0828L56.5862 44.4493C55.681 43.5584 55.1724 42.3502 55.1724 41.0904Z" fill="#FFDDCC"/>
<path fill-rule="evenodd" clip-rule="evenodd" d="M34.3526 79.8885C32.8115 79.6788 31.3009 79.1736 29.9068 78.3729L10.09 66.9903C11.8312 63.3685 13.9204 59.9298 16.6351 56.6521C17.135 56.0485 17.9682 55.8439 18.7013 56.1227L35.1 62.3587C36.4143 62.8586 37.441 63.9192 37.8574 65.2602C39.2794 69.8395 40.2932 74.2767 40.8988 78.9751C39.4724 79.5992 37.9567 79.9383 36.4334 79.9923C35.7346 79.9779 35.0408 79.9431 34.3526 79.8885Z" fill="#FFD359"/>
<path d="M53.505 49.2388C51.1645 47.8385 43.6879 48.3051 43.2204 47.8386C40.4148 45.0391 44.3879 34.5387 46.4911 31.0369C64.2622 36.6375 64.2617 21.2361 47.8939 22.1695C29.9429 14.819 16.0696 26.914 24.5599 46.8809C24.8117 47.473 25.3673 47.8901 26.0071 47.9677C27.9729 48.2061 32.1098 48.6601 32.4632 48.3053C32.9283 47.8385 34.3361 44.5718 33.3984 44.1049C23.2152 39.0349 37.783 28.978 39.3439 38.5741C39.5339 39.7421 39.2684 40.9447 38.7278 41.9977C36.677 45.9919 33.4956 49.6545 34.8012 54.8393C35.2713 56.7063 42.8463 60.3467 46.9612 59.9733C51.076 59.6 55.8455 50.6391 53.505 49.2388Z" fill="#4E1E30"/>
<path d="M50 41C50 41.5523 50.6716 42 51.5 42C52.3284 42 53 41.5523 53 41C53 40.4477 52.3284 40 51.5 40C50.6716 40 50 40.4477 50 41Z" fill="#4A1827"/>
<path d="M55 37C55 36.4477 54.5523 36 54 36H49C48.4477 36 48 36.4477 48 37V37C48 37.5523 48.4477 38 49 38H54C54.5523 38 55 37.5523 55 37V37Z" fill="#5B2C3E"/>
</svg>
