<svg width="72" height="80" viewBox="0 0 72 80" fill="none" xmlns="http://www.w3.org/2000/svg">
<path d="M0 25.9896C0 21.5456 2.35791 17.441 6.18149 15.229L29.6602 1.64615C33.4307 -0.535173 38.0631 -0.54952 41.8469 1.6084L65.7528 15.2423C69.6133 17.444 72 21.5693 72 26.0406V53.9847C72 58.4424 69.6277 62.5575 65.7855 64.7643L42.0932 78.3729C38.3161 80.5424 33.6839 80.5424 29.9068 78.3729L6.21449 64.7643C2.37234 62.5575 0 58.4424 0 53.9847V25.9896Z" fill="#FFD1CC"/>
<path d="M36.4446 60.51C36.3913 60.51 36.3379 60.5633 36.2846 60.5633C36.2313 60.5633 36.178 60.51 36.1247 60.51H36.4446Z" fill="#84DBFF"/>
<path fill-rule="evenodd" clip-rule="evenodd" d="M33.5697 79.7559C32.3013 79.4985 31.0639 79.0375 29.9068 78.3729L10.2094 67.0589C14.6367 61.325 21.2831 58.4615 26.7412 57.0445C26.3146 60.5633 28.1274 65.2551 28.1807 65.1485C30.0468 60.8832 36.2847 60.51 36.2847 60.51C36.2847 60.51 42.5227 60.8832 44.3354 65.1485C44.3887 65.2551 46.2548 60.5633 45.7749 57.0445C51.2122 58.4427 57.8063 61.2491 62.1865 66.8316L42.0932 78.3729C40.8423 79.0914 39.4977 79.5719 38.1214 79.8145C37.5132 79.8471 36.9008 79.8637 36.2847 79.8637C35.3709 79.8637 34.4655 79.8273 33.5697 79.7559Z" fill="#22CCE2"/>
<path d="M44.2847 53.8909C44.2847 53.8909 44.2847 53.8909 44.2847 53.9394C44.2847 54.4242 44.005 57.5273 36.4526 60H36.1169C28.5644 57.5273 28.2847 54.4242 28.2847 53.9394C28.2847 53.8909 28.2847 53.8909 28.2847 53.8909C28.2847 53.2606 28.4526 52.6303 28.6204 52C30.8022 54.3758 33.4316 55.9758 36.2847 55.9758C39.1379 55.9758 41.7672 54.3758 43.9491 52C44.1169 52.6303 44.2847 53.2606 44.2847 53.8909Z" fill="#FFD7A3"/>
<path d="M43.9089 53.7389C43.9089 53.7389 44.2821 57.5776 36.2847 60.5633C36.2847 60.5633 42.5227 60.9365 44.3354 65.2018C44.442 65.3084 48.0142 56.0315 43.9089 53.7389Z" fill="#169AAB"/>
<path d="M28.6605 53.7389C24.5552 56.0315 28.1273 65.3084 28.234 65.1485C30.1 60.8832 36.2847 60.51 36.2847 60.51C28.2873 57.5776 28.6605 53.7389 28.6605 53.7389Z" fill="#169AAB"/>
<path d="M47.4809 40.2499C47.0011 43.5554 45.5616 46.6477 43.1624 48.9936C42.6825 49.4735 42.256 49.8467 41.7228 50.2199L40.8698 47.5008H31.6994L30.8464 50.2199C29.1403 48.9403 25.5681 45.3682 25.5148 42.0093C24.022 22.8689 38.6838 26.9209 38.6838 26.9209C48.5473 26.2278 48.2274 34.9183 47.4809 40.2499Z" fill="#FFE1B2"/>
<path d="M49.4535 43.7154C48.7071 44.9417 47.6941 45.7948 46.7344 46.1146C47.1076 45.2616 47.4275 44.3552 47.6941 43.4489C47.6941 43.4489 47.6941 43.4489 47.6941 43.3955C47.9074 42.5958 48.1206 41.7961 48.3339 40.9963H48.2806C48.4938 40.1966 48.7071 39.3968 48.8671 38.5971C49.0803 38.5971 49.2936 38.7037 49.5068 38.8104C50.6798 39.5568 50.6265 41.7427 49.4535 43.7154Z" fill="#FFE1B2"/>
<path d="M25.8347 46.1146C24.875 45.7947 23.862 44.9417 23.1156 43.7154C21.8894 41.7427 21.8894 39.5568 23.0623 38.8636C23.1689 38.8103 23.2223 38.757 23.3289 38.757C23.9687 41.2629 24.7151 43.1289 24.875 43.5021C25.1416 44.3552 25.4615 45.2616 25.8347 46.1146Z" fill="#FFE1B2"/>
<path d="M42.1888 21.5857C42.6254 16.6846 34.6568 17.0043 34.6568 17.0043C22.5946 18.709 21.2847 29.6832 21.2847 29.6832L22.9221 27.7654C20.3569 33.2525 24.232 42.6818 24.5595 43.4276C26.579 49.9802 31.0545 56 36.2396 56C41.4246 56 45.9002 49.9802 47.9196 43.4276C47.9196 43.4276 47.9196 43.4276 47.9196 43.3743C48.1379 42.5752 48.3563 41.7761 48.52 40.977H48.4654C49.557 36.7152 50.7578 32.4001 50.7578 32.4001C53.8688 17.1108 42.1888 21.5857 42.1888 21.5857ZM47.7013 40.2312C47.2101 43.5341 45.7364 46.624 43.2804 48.968C42.7891 49.4474 42.2979 49.8203 41.8067 50.1933L40.9334 47.5296H31.5457L30.6724 50.2465C28.9259 48.968 27.4522 47.21 26.2515 45.1856C25.7057 44.1201 25.3782 43.0014 25.2145 42.0425C23.6862 22.9175 38.6957 26.9663 38.6957 26.9663C48.7929 26.2205 48.4654 34.9039 47.7013 40.2312Z" fill="#324A5E"/>
<path d="M42.1888 21.5857C42.6254 16.6846 34.6568 17.0043 34.6568 17.0043C22.5946 18.709 21.2847 29.6832 21.2847 29.6832L22.9221 27.7654C20.3569 33.2525 24.232 42.6818 24.5595 43.4276C26.579 49.9802 31.0545 56 36.2396 56C41.4246 56 45.9002 49.9802 47.9196 43.4276C47.9196 43.4276 47.9196 43.4276 47.9196 43.3743C48.1379 42.5752 48.3563 41.7761 48.52 40.977H48.4654C49.557 36.7152 50.7578 32.4001 50.7578 32.4001C53.8688 17.1108 42.1888 21.5857 42.1888 21.5857ZM47.7013 40.2312C47.2101 43.5341 45.7364 46.624 43.2804 48.968C42.7891 49.4474 42.2979 49.8203 41.8067 50.1933L40.9334 47.5296H31.5457L30.6724 50.2465C28.9259 48.968 27.4522 47.21 26.2515 45.1856C25.7057 44.1201 25.3782 43.0014 25.2145 42.0425C23.6862 22.9175 38.6957 26.9663 38.6957 26.9663C48.7929 26.2205 48.4654 34.9039 47.7013 40.2312Z" fill="#324A5E"/>
<path d="M42.1888 21.5857C42.6254 16.6846 34.6568 17.0043 34.6568 17.0043C22.5946 18.709 21.2847 29.6832 21.2847 29.6832L22.9221 27.7654C20.3569 33.2525 24.232 42.6818 24.5595 43.4276C26.579 49.9802 31.0545 56 36.2396 56C41.4246 56 45.9002 49.9802 47.9196 43.4276C47.9196 43.4276 47.9196 43.4276 47.9196 43.3743C48.1379 42.5752 48.3563 41.7761 48.52 40.977H48.4654C49.557 36.7152 50.7578 32.4001 50.7578 32.4001C53.8688 17.1108 42.1888 21.5857 42.1888 21.5857ZM47.7013 40.2312C47.2101 43.5341 45.7364 46.624 43.2804 48.968C42.7891 49.4474 42.2979 49.8203 41.8067 50.1933L40.9334 47.5296H31.5457L30.6724 50.2465C28.9259 48.968 25.269 45.3987 25.2145 42.0425C23.6862 22.9175 38.6957 26.9663 38.6957 26.9663C48.7929 26.2205 48.4654 34.9039 47.7013 40.2312Z" fill="#1F0951"/>
<path d="M32.2847 49C33.2562 50.1875 34.6847 51 36.2847 51C37.8847 51 39.3133 50.25 40.2847 49H32.2847Z" fill="white"/>
</svg>
